<svg xmlns="http://www.w3.org/2000/svg" viewBox="0 0 128 128" role="img" aria-label="KidsLab logo">
  <defs>
    <linearGradient id="bg" x1="0" y1="0" x2="1" y2="1">
      <stop offset="0" stop-color="#2B2650"/>
      <stop offset="1" stop-color="#141126"/>
    </linearGradient>
    <linearGradient id="c" x1="0.2" y1="0" x2="0.8" y2="1">
      <stop offset="0" stop-color="#FFD166"/>
      <stop offset="0.5" stop-color="#FF5D8F"/>
      <stop offset="1" stop-color="#4CC9F0"/>
    </linearGradient>
    <radialGradient id="glow">
      <stop offset="0" stop-color="#FFD166" stop-opacity="0.9"/>
      <stop offset="1" stop-color="#FFD166" stop-opacity="0"/>
    </radialGradient>
  </defs>
  <rect x="4" y="4" width="120" height="120" rx="30" fill="url(#bg)"/>
  <rect x="7" y="7" width="114" height="114" rx="27" fill="none" stroke="#ffffff" stroke-opacity="0.09" stroke-width="2"/>
  <ellipse cx="64" cy="64" rx="52" ry="18" fill="none" stroke="#ffffff" stroke-opacity="0.32" stroke-width="3.5" stroke-dasharray="1 8" stroke-linecap="round" transform="rotate(-25 64 64)"/>
  <path d="M 90 42.1 A 34 34 0 1 0 90 85.9" fill="none" stroke="url(#c)" stroke-width="20" stroke-linecap="round"/>
  <circle cx="108.6" cy="53.1" r="15" fill="url(#glow)"/>
  <circle cx="108.6" cy="53.1" r="6.5" fill="#FFD166"/>
  <circle cx="108.6" cy="53.1" r="6.5" fill="none" stroke="#141126" stroke-opacity="0.25" stroke-width="1.5"/>
  <path d="M31 20 l2.6 6.4 6.4 2.6 -6.4 2.6 -2.6 6.4 -2.6 -6.4 -6.4 -2.6 6.4 -2.6 z" fill="#FFFFFF" opacity="0.9"/>
  <path d="M98 100 l1.8 4.4 4.4 1.8 -4.4 1.8 -1.8 4.4 -1.8 -4.4 -4.4 -1.8 4.4 -1.8 z" fill="#FF5D8F" opacity="0.95"/>
</svg>
